# xmcd
#
# Track frame offsets:
#	150
#	16651
#	28199
#	41007
#	55713
#	70002
#	81619
#	93128
#	104293
#	114897
#
# Disc length: 1673 seconds
#
# Revision: 0
# Processed by: cddbd v1.4PL0 Copyright (c) Steve Scherf et al.
# Submitted via: dBpowerAMP V4.0
#
DISCID=7206870a
DTITLE=Joan Sebastian - Colección de Oro 3
DYEAR=1900
DGENRE=Ranchera
TTITLE0=Carrera a Muerte
TTITLE1=Soy Como Quiero Ser
TTITLE2=La Mamá de los Pollitos
TTITLE3=Como Perro con Rabia
TTITLE4=Te Quiero Si
TTITLE5=En un Jaripeo
TTITLE6=El Siete Vidas
TTITLE7=Negra Suerte
TTITLE8=A la Sombra de un Guamuchil
TTITLE9=El Postre
EXTD=
EXTT0=
EXTT1=
EXTT2=
EXTT3=
EXTT4=
EXTT5=
EXTT6=
EXTT7=
EXTT8=
EXTT9=
PLAYORDER=
